<svg width="63" height="63" viewBox="0 0 63 63" fill="none" xmlns="http://www.w3.org/2000/svg">
<g filter="url(#filter0_d_53_126)">
<circle cx="31.5" cy="27.5" r="27.5" fill="white"/>
</g>
<g filter="url(#filter1_d_53_126)">
<path d="M21.9663 15.8313C28.0529 11.411 36.7518 11.7723 42.3793 16.6881C48.1052 21.6871 48.8875 29.8577 44.1781 35.7071C39.7405 41.2176 31.7411 43.0337 25.0799 40.1913L24.7176 40.0299L17.8862 41.5182L17.7691 41.539L17.5974 41.5534L17.4209 41.547L17.3522 41.539L17.1805 41.507L17.0165 41.4526L16.8604 41.3823L16.7417 41.3152L16.5731 41.1921L16.4466 41.0738L16.3326 40.9411L16.2498 40.8212L16.1483 40.6373L16.0828 40.4679L16.0344 40.2872L16.0141 40.1673L16 39.9915L16.0062 39.8108L16.0141 39.7405L16.0453 39.5646L16.0796 39.4495L17.8753 33.9326L17.841 33.8751C14.3901 27.885 15.9532 20.4593 21.6056 16.1014L21.9648 15.8329L21.9663 15.8313Z" fill="url(#paint0_linear_53_126)"/>
</g>
<circle cx="45.3447" cy="17.5454" r="7.54537" fill="#0FD122"/>
<path d="M44.5542 19.0552L48.9097 14.3356C49.0451 14.189 49.2173 14.1157 49.4265 14.1157C49.6357 14.1157 49.8079 14.189 49.9433 14.3356C50.0786 14.4823 50.1463 14.6689 50.1463 14.8956C50.1463 15.1222 50.0786 15.3089 49.9433 15.4555L45.0709 20.7351C44.9233 20.8951 44.751 20.9751 44.5542 20.9751C44.3573 20.9751 44.185 20.8951 44.0374 20.7351L42.118 18.6553C41.9826 18.5086 41.915 18.322 41.915 18.0953C41.915 17.8687 41.9826 17.682 42.118 17.5354C42.2533 17.3887 42.4256 17.3154 42.6348 17.3154C42.8439 17.3154 43.0162 17.3887 43.1515 17.5354L44.5542 19.0552Z" fill="white"/>
<circle cx="24.7664" cy="27.1486" r="2.05783" fill="white"/>
<circle cx="39.0341" cy="27.1486" r="2.05783" fill="white"/>
<circle cx="31.9002" cy="27.1486" r="2.05783" fill="white"/>
<defs>
<filter id="filter0_d_53_126" x="0" y="0" width="63" height="63" filterUnits="userSpaceOnUse" color-interpolation-filters="sRGB">
<feFlood flood-opacity="0" result="BackgroundImageFix"/>
<feColorMatrix in="SourceAlpha" type="matrix" values="0 0 0 0 0 0 0 0 0 0 0 0 0 0 0 0 0 0 127 0" result="hardAlpha"/>
<feOffset dy="4"/>
<feGaussianBlur stdDeviation="2"/>
<feComposite in2="hardAlpha" operator="out"/>
<feColorMatrix type="matrix" values="0 0 0 0 0 0 0 0 0 0 0 0 0 0 0 0 0 0 0.25 0"/>
<feBlend mode="normal" in2="BackgroundImageFix" result="effect1_dropShadow_53_126"/>
<feBlend mode="normal" in="SourceGraphic" in2="effect1_dropShadow_53_126" result="shape"/>
</filter>
<filter id="filter1_d_53_126" x="12" y="12.7438" width="39.2517" height="36.8096" filterUnits="userSpaceOnUse" color-interpolation-filters="sRGB">
<feFlood flood-opacity="0" result="BackgroundImageFix"/>
<feColorMatrix in="SourceAlpha" type="matrix" values="0 0 0 0 0 0 0 0 0 0 0 0 0 0 0 0 0 0 127 0" result="hardAlpha"/>
<feOffset dy="4"/>
<feGaussianBlur stdDeviation="2"/>
<feComposite in2="hardAlpha" operator="out"/>
<feColorMatrix type="matrix" values="0 0 0 0 0 0 0 0 0 0 0 0 0 0 0 0 0 0 0.25 0"/>
<feBlend mode="normal" in2="BackgroundImageFix" result="effect1_dropShadow_53_126"/>
<feBlend mode="normal" in="SourceGraphic" in2="effect1_dropShadow_53_126" result="shape"/>
</filter>
<linearGradient id="paint0_linear_53_126" x1="31.6258" y1="12.7438" x2="31.6258" y2="41.5534" gradientUnits="userSpaceOnUse">
<stop stop-color="#11099D"/>
<stop offset="1" stop-color="#FE467E"/>
</linearGradient>
</defs>
</svg>
