<svg width="63" height="63" viewBox="0 0 63 63" fill="none" xmlns="http://www.w3.org/2000/svg">
<g filter="url(#filter0_d_53_125)">
<circle cx="31.5" cy="27.5" r="27.5" fill="white"/>
</g>
<path d="M43.067 16.545C40.4693 13.9474 37.1012 12.2595 33.4654 11.7334C29.8296 11.2073 26.1212 11.8712 22.8937 13.626C19.6663 15.3808 17.0929 18.1324 15.5578 21.4699C14.0227 24.8074 13.6082 28.5519 14.3762 32.1444C15.1442 35.7369 17.0534 38.9846 19.8189 41.4028C22.5844 43.821 26.0579 45.2799 29.7207 45.5618C33.3835 45.8436 37.0392 44.9333 40.1421 42.9667C43.2451 41.0001 45.6287 38.0826 46.9373 34.6499L43.9011 33.4926C42.8423 36.2702 40.9135 38.6309 38.4027 40.2222C35.8919 41.8136 32.9338 42.5502 29.97 42.3221C27.0061 42.094 24.1955 40.9135 21.9578 38.9568C19.72 37.0001 18.1751 34.3721 17.5537 31.4652C16.9323 28.5582 17.2677 25.5283 18.5098 22.8277C19.752 20.127 21.8343 17.9006 24.4458 16.4806C27.0574 15.0607 30.0581 14.5235 33.0001 14.9492C35.942 15.3749 38.6674 16.7406 40.7694 18.8426L43.067 16.545Z" fill="url(#paint0_linear_53_125)"/>
<path d="M30.6353 17.0218C30.6353 17.5189 31.0382 17.9218 31.5353 17.9218C32.0323 17.9218 32.4353 17.5189 32.4353 17.0218L30.6353 17.0218ZM30.6353 14.4805L30.6353 17.0218L32.4353 17.0218L32.4353 14.4805L30.6353 14.4805Z" fill="#451697"/>
<path d="M32.4353 39.1315C32.4353 38.6345 32.0323 38.2315 31.5353 38.2315C31.0382 38.2315 30.6353 38.6345 30.6353 39.1315L32.4353 39.1315ZM30.6353 41.6729L30.6353 42.5729L32.4353 42.5729L32.4353 41.6729L30.6353 41.6729ZM30.6353 39.1315L30.6353 41.6729L32.4353 41.6729L32.4353 39.1315L30.6353 39.1315Z" fill="url(#paint1_linear_53_125)"/>
<path d="M24.1199 37.4432C24.536 37.1714 24.6531 36.6137 24.3813 36.1975C24.1095 35.7813 23.5518 35.6643 23.1356 35.9361L24.1199 37.4432ZM21.0079 37.3258L20.2543 37.8179L21.2386 39.325L21.9922 38.8328L21.0079 37.3258ZM23.1356 35.9361L21.0079 37.3258L21.9922 38.8328L24.1199 37.4432L23.1356 35.9361Z" fill="url(#paint2_linear_53_125)"/>
<path d="M22.9956 21.8164C23.3753 22.1372 23.9431 22.0894 24.2639 21.7098C24.5847 21.3301 24.537 20.7623 24.1573 20.4414L22.9956 21.8164ZM22.2161 18.8013L21.5287 18.2204L20.3669 19.5953L21.0544 20.1762L22.2161 18.8013ZM24.1573 20.4414L22.2161 18.8013L21.0544 20.1762L22.9956 21.8164L24.1573 20.4414Z" fill="url(#paint3_linear_53_125)"/>
<path d="M20.5279 29.389C21.0249 29.389 21.4279 28.9861 21.4279 28.489C21.4279 27.992 21.0249 27.589 20.5279 27.589V29.389ZM17.9865 27.589H17.0865V29.389H17.9865V27.589ZM20.5279 27.589H17.9865V29.389H20.5279V27.589Z" fill="url(#paint4_linear_53_125)"/>
<path d="M26.5373 9C26.5373 8.44771 26.985 8 27.5373 8H33.8955C34.4478 8 34.8955 8.44772 34.8955 9V12.1791H26.5373V9Z" fill="url(#paint5_linear_53_125)"/>
<path d="M31.4408 27.9639V24.8787H32.2995V27.9639H31.4408ZM30.3264 26.8517V25.9909H33.4117V26.8517H30.3264ZM37.2112 28.6543C36.893 28.6543 36.6104 28.5967 36.3632 28.4817C36.116 28.3666 35.9207 28.2082 35.7773 28.0065C35.6352 27.8048 35.5614 27.5733 35.5557 27.3119H36.5784C36.5869 27.4724 36.6523 27.6017 36.7744 27.6997C36.8966 27.7963 37.0422 27.8446 37.2112 27.8446C37.3433 27.8446 37.4605 27.8155 37.5628 27.7572C37.665 27.699 37.7453 27.6173 37.8035 27.5122C37.8618 27.4057 37.8902 27.2835 37.8888 27.1457C37.8902 27.0051 37.8611 26.8822 37.8014 26.7771C37.7432 26.672 37.6622 26.5903 37.5585 26.5321C37.4562 26.4724 37.3383 26.4426 37.2048 26.4426C37.0784 26.4412 36.9584 26.4689 36.8447 26.5257C36.7325 26.5825 36.6473 26.6599 36.5891 26.758L35.6579 26.5832L35.8476 24.231H38.6473V25.0811H36.7148L36.6146 26.1102H36.6402C36.7126 25.9895 36.8291 25.8901 36.9896 25.8119C37.1516 25.7324 37.3355 25.6926 37.5415 25.6926C37.8028 25.6926 38.0358 25.7537 38.2403 25.8759C38.4463 25.9966 38.6082 26.1642 38.7261 26.3787C38.8454 26.5932 38.9051 26.8389 38.9051 27.1159C38.9051 27.4156 38.8341 27.6813 38.692 27.9128C38.5514 28.1443 38.354 28.3261 38.0997 28.4582C37.8469 28.5889 37.5507 28.6543 37.2112 28.6543ZM39.4926 28.5946V25.3219H40.4834V25.9227H40.5196C40.5878 25.7239 40.7029 25.5669 40.8648 25.4518C41.0267 25.3368 41.2199 25.2793 41.4443 25.2793C41.6716 25.2793 41.8662 25.3375 42.0282 25.454C42.1901 25.5705 42.2931 25.7267 42.3371 25.9227H42.3712C42.4323 25.7281 42.5516 25.5726 42.7291 25.4561C42.9067 25.3382 43.1162 25.2793 43.3577 25.2793C43.6674 25.2793 43.9188 25.3787 44.112 25.5776C44.3051 25.775 44.4017 26.0463 44.4017 26.3915V28.5946H43.3598V26.6301C43.3598 26.4668 43.3179 26.3425 43.2341 26.2572C43.1503 26.1706 43.0416 26.1273 42.9081 26.1273C42.7647 26.1273 42.6517 26.1741 42.5693 26.2679C42.4884 26.3602 42.4479 26.4845 42.4479 26.6408V28.5946H41.4465V26.6195C41.4465 26.4675 41.4053 26.3474 41.3229 26.2594C41.2405 26.1713 41.1318 26.1273 40.9969 26.1273C40.906 26.1273 40.8257 26.1493 40.7561 26.1933C40.6865 26.2359 40.6318 26.297 40.5921 26.3766C40.5537 26.4561 40.5345 26.5499 40.5345 26.6578V28.5946H39.4926ZM45.0473 28.5946V25.3219H46.0892V28.5946H45.0473ZM45.5693 24.9405C45.423 24.9405 45.2973 24.8922 45.1922 24.7956C45.0871 24.6976 45.0345 24.5797 45.0345 24.4419C45.0345 24.3055 45.0871 24.1891 45.1922 24.0925C45.2973 23.9945 45.423 23.9455 45.5693 23.9455C45.7171 23.9455 45.8428 23.9945 45.9465 24.0925C46.0516 24.1891 46.1041 24.3055 46.1041 24.4419C46.1041 24.5797 46.0516 24.6976 45.9465 24.7956C45.8428 24.8922 45.7171 24.9405 45.5693 24.9405ZM47.7943 26.7281V28.5946H46.7524V25.3219H47.7432V25.9227H47.7794C47.8518 25.7224 47.9754 25.5655 48.1501 25.4518C48.3248 25.3368 48.5329 25.2793 48.7744 25.2793C49.0045 25.2793 49.2041 25.3311 49.3731 25.4348C49.5436 25.5371 49.6757 25.6805 49.7695 25.8652C49.8646 26.0484 49.9115 26.2629 49.9101 26.5087V28.5946H48.8682V26.7132C48.8696 26.5314 48.8234 26.3893 48.7297 26.2871C48.6373 26.1848 48.5088 26.1337 48.344 26.1337C48.2346 26.1337 48.1381 26.1578 48.0543 26.2061C47.9719 26.253 47.9079 26.3205 47.8625 26.4085C47.8185 26.4966 47.7957 26.6031 47.7943 26.7281ZM53.4124 26.3212L52.4557 26.3467C52.4458 26.2786 52.4188 26.2182 52.3747 26.1656C52.3307 26.1116 52.2732 26.0697 52.2022 26.0399C52.1326 26.0087 52.0516 25.993 51.9593 25.993C51.8385 25.993 51.7355 26.0172 51.6503 26.0655C51.5665 26.1138 51.5253 26.1791 51.5267 26.2615C51.5253 26.3254 51.5509 26.3808 51.6034 26.4277C51.6574 26.4746 51.7533 26.5122 51.8911 26.5406L52.5218 26.6599C52.8485 26.7224 53.0914 26.8261 53.2505 26.971C53.411 27.1159 53.4919 27.3077 53.4933 27.5463C53.4919 27.7707 53.4252 27.9661 53.2931 28.1322C53.1624 28.2984 52.9834 28.4277 52.7561 28.52C52.5289 28.6109 52.2689 28.6564 51.9763 28.6564C51.509 28.6564 51.1404 28.5605 50.8705 28.3688C50.602 28.1756 50.4486 27.917 50.4103 27.5932L51.4394 27.5676C51.4621 27.6869 51.521 27.7778 51.6162 27.8403C51.7114 27.9028 51.8328 27.9341 51.9806 27.9341C52.1141 27.9341 52.2228 27.9092 52.3066 27.8595C52.3904 27.8098 52.433 27.7438 52.4344 27.6614C52.433 27.5875 52.4003 27.5286 52.3364 27.4845C52.2725 27.4391 52.1723 27.4036 52.036 27.378L51.4649 27.2693C51.1368 27.2097 50.8925 27.0996 50.732 26.9391C50.5715 26.7771 50.4919 26.5712 50.4933 26.3212C50.4919 26.1024 50.5502 25.9156 50.6681 25.7608C50.786 25.6045 50.9536 25.4852 51.1709 25.4028C51.3882 25.3205 51.6446 25.2793 51.9401 25.2793C52.3833 25.2793 52.7327 25.3723 52.9884 25.5584C53.2441 25.743 53.3854 25.9973 53.4124 26.3212Z" fill="url(#paint6_linear_53_125)"/>
<defs>
<filter id="filter0_d_53_125" x="0" y="0" width="63" height="63" filterUnits="userSpaceOnUse" color-interpolation-filters="sRGB">
<feFlood flood-opacity="0" result="BackgroundImageFix"/>
<feColorMatrix in="SourceAlpha" type="matrix" values="0 0 0 0 0 0 0 0 0 0 0 0 0 0 0 0 0 0 127 0" result="hardAlpha"/>
<feOffset dy="4"/>
<feGaussianBlur stdDeviation="2"/>
<feComposite in2="hardAlpha" operator="out"/>
<feColorMatrix type="matrix" values="0 0 0 0 0 0 0 0 0 0 0 0 0 0 0 0 0 0 0.25 0"/>
<feBlend mode="normal" in2="BackgroundImageFix" result="effect1_dropShadow_53_125"/>
<feBlend mode="normal" in="SourceGraphic" in2="effect1_dropShadow_53_125" result="shape"/>
</filter>
<linearGradient id="paint0_linear_53_125" x1="31.027" y1="11.5579" x2="31.027" y2="45.612" gradientUnits="userSpaceOnUse">
<stop stop-color="#3A1398"/>
<stop offset="1" stop-color="#D93C83"/>
</linearGradient>
<linearGradient id="paint1_linear_53_125" x1="31.4474" y1="42.8259" x2="31.4474" y2="37.9502" gradientUnits="userSpaceOnUse">
<stop stop-color="#CE3985"/>
<stop offset="1" stop-color="#451697"/>
</linearGradient>
<linearGradient id="paint2_linear_53_125" x1="20.3892" y1="38.1349" x2="24.5578" y2="35.3334" gradientUnits="userSpaceOnUse">
<stop stop-color="#BB3487"/>
<stop offset="1" stop-color="#531995"/>
</linearGradient>
<linearGradient id="paint3_linear_53_125" x1="20.8992" y1="18.526" x2="23.3794" y2="22.1403" gradientUnits="userSpaceOnUse">
<stop stop-color="#591B94"/>
<stop offset="1" stop-color="#5C1C94"/>
</linearGradient>
<linearGradient id="paint4_linear_53_125" x1="21.6617" y1="28.7808" x2="16.169" y2="27.8244" gradientUnits="userSpaceOnUse">
<stop stop-color="#491797"/>
<stop offset="1" stop-color="#932A8C"/>
</linearGradient>
<linearGradient id="paint5_linear_53_125" x1="30.7164" y1="6.60696" x2="30.7164" y2="12.1791" gradientUnits="userSpaceOnUse">
<stop stop-color="#CD3985"/>
<stop offset="1" stop-color="#3F1497"/>
</linearGradient>
<linearGradient id="paint6_linear_53_125" x1="44.4054" y1="22.5946" x2="44.4054" y2="31.1081" gradientUnits="userSpaceOnUse">
<stop stop-color="#3A1398"/>
<stop offset="1" stop-color="#D93C83"/>
</linearGradient>
</defs>
</svg>
