<?xml version="1.0" encoding="UTF-8" standalone="no"?>
<svg xmlns="http://www.w3.org/2000/svg" version="1.2" baseProfile="tiny" viewBox="0.00 0.00 25.00 26.00">
<path fill="#fefefe" d="
  M 10.08 0.00
  L 11.52 0.00
  L 15.26 2.60
  Q 15.75 2.94 16.28 2.67
  Q 18.13 1.71 19.94 1.46
  C 21.61 1.23 22.29 2.98 21.79 4.34
  Q 21.20 5.95 20.71 7.55
  Q 20.58 7.98 20.85 8.33
  L 23.10 11.35
  A 1.97 1.97 0.0 0 1 21.53 14.50
  L 17.94 14.50
  A 1.25 1.24 17.3 0 0 16.92 15.03
  L 14.86 18.01
  A 1.88 1.88 0.0 0 1 11.54 17.58
  L 10.62 15.02
  Q 10.41 14.45 9.98 14.87
  Q 6.05 18.76 1.93 22.93
  Q 0.98 23.89 0.00 22.64
  L 0.00 22.02
  L 8.44 13.59
  Q 8.97 13.06 8.26 12.83
  L 6.08 12.10
  Q 5.51 11.91 5.19 11.40
  C 3.68 9.03 7.00 7.65 8.54 6.58
  Q 8.99 6.26 8.92 5.73
  Q 8.40 1.85 10.08 0.00
  Z
  M 11.53 11.76
  A 0.34 0.34 0.0 0 1 11.75 11.98
  L 13.08 16.13
  A 0.34 0.34 0.0 0 0 13.68 16.23
  L 16.22 12.65
  A 0.34 0.34 0.0 0 1 16.50 12.51
  L 20.88 12.50
  A 0.34 0.34 0.0 0 0 21.15 11.96
  L 18.50 8.47
  A 0.34 0.34 0.0 0 1 18.45 8.16
  L 19.81 4.00
  A 0.34 0.34 0.0 0 0 19.37 3.58
  L 15.26 5.01
  A 0.34 0.34 0.0 0 1 14.95 4.96
  L 11.35 2.30
  A 0.34 0.34 0.0 0 0 10.81 2.59
  L 11.05 6.93
  A 0.34 0.34 0.0 0 1 10.91 7.22
  L 7.34 9.85
  A 0.34 0.34 0.0 0 0 7.43 10.44
  L 11.53 11.76
  Z"
/>
<path fill="#fefefe" d="
  M 14.4070 25.1075
  A 2.59 2.07 92.5 0 1 12.4520 22.4297
  A 2.59 2.07 92.5 0 1 14.6330 19.9325
  A 2.59 2.07 92.5 0 1 16.5880 22.6103
  A 2.59 2.07 92.5 0 1 14.4070 25.1075
  Z
  M 14.5567 24.4494
  A 1.91 1.31 88.6 0 0 15.8196 22.5080
  A 1.91 1.31 88.6 0 0 14.4633 20.6306
  A 1.91 1.31 88.6 0 0 13.2004 22.5720
  A 1.91 1.31 88.6 0 0 14.5567 24.4494
  Z"
/>
<path fill="#fefefe" d="
  M 20.68 22.30
  Q 20.45 21.47 20.51 20.59
  Q 20.54 20.18 20.96 20.16
  Q 21.16 20.16 21.27 20.27
  Q 21.38 20.39 21.37 20.55
  Q 21.33 22.27 21.42 24.45
  A 0.45 0.43 79.0 0 1 21.14 24.88
  Q 20.80 25.02 20.53 24.84
  Q 20.31 24.70 20.20 24.48
  Q 19.52 23.20 18.47 22.24
  Q 17.60 21.43 17.89 22.58
  L 18.34 24.32
  Q 18.48 24.87 17.92 24.77
  L 17.48 24.70
  A 0.24 0.24 0.0 0 1 17.28 24.44
  Q 17.39 23.03 17.32 21.73
  Q 17.18 18.77 19.01 21.11
  Q 19.18 21.33 19.87 22.63
  Q 19.95 22.78 20.10 22.83
  Q 20.91 23.12 20.68 22.30
  Z"
/>
</svg>
