<?xml version="1.0" encoding="UTF-8" standalone="no"?>
<!DOCTYPE svg PUBLIC "-//W3C//DTD SVG 1.1//EN" "http://www.w3.org/Graphics/SVG/1.1/DTD/svg11.dtd">
<svg xmlns="http://www.w3.org/2000/svg" version="1.1" viewBox="0.00 0.00 25.00 25.00">
<path fill="#fefeff" d="
  M 10.08 0.00
  L 11.52 0.00
  L 15.26 2.60
  Q 15.75 2.94 16.28 2.67
  Q 18.12 1.71 19.95 1.46
  C 21.61 1.23 22.28 3.00 21.79 4.35
  Q 21.20 5.95 20.71 7.55
  Q 20.58 7.98 20.85 8.33
  L 23.10 11.35
  A 1.97 1.97 0.0 0 1 21.53 14.50
  L 17.94 14.50
  A 1.25 1.24 17.3 0 0 16.92 15.03
  L 14.86 18.01
  A 1.88 1.88 0.0 0 1 11.54 17.58
  L 10.62 15.02
  Q 10.41 14.45 9.99 14.87
  Q 5.86 18.95 1.93 22.93
  Q 0.98 23.89 0.00 22.64
  L 0.00 22.03
  L 8.47 13.57
  Q 9.09 12.94 8.23 12.74
  Q 7.43 12.56 6.52 12.30
  C 4.73 11.78 4.06 9.78 5.68 8.57
  Q 7.04 7.55 8.46 6.67
  Q 9.00 6.34 8.91 5.72
  Q 8.41 1.84 10.08 0.00
  Z
  M 11.53 11.76
  A 0.34 0.34 0.0 0 1 11.75 11.98
  L 13.08 16.13
  A 0.34 0.34 0.0 0 0 13.68 16.23
  L 16.22 12.65
  A 0.34 0.34 0.0 0 1 16.50 12.51
  L 20.87 12.50
  A 0.34 0.34 0.0 0 0 21.14 11.96
  L 18.49 8.47
  A 0.34 0.34 0.0 0 1 18.44 8.16
  L 19.80 4.00
  A 0.34 0.34 0.0 0 0 19.37 3.58
  L 15.26 5.01
  A 0.34 0.34 0.0 0 1 14.95 4.96
  L 11.35 2.30
  A 0.34 0.34 0.0 0 0 10.81 2.59
  L 11.05 6.93
  A 0.34 0.34 0.0 0 1 10.91 7.22
  L 7.34 9.85
  A 0.34 0.34 0.0 0 0 7.43 10.44
  L 11.53 11.76
  Z"
/>
<rect fill="#fefeff" x="-1.59" y="-2.88" transform="translate(16.85,21.26) rotate(12.2)" width="3.18" height="5.76" rx="1.40"/>
<path fill="#fefeff" d="
  M 23.69 20.43
  L 24.18 20.66
  A 0.50 0.49 17.5 0 1 24.45 21.17
  Q 24.41 21.59 24.01 21.62
  Q 23.39 21.66 23.23 22.26
  L 22.79 23.89
  Q 22.76 24.00 22.65 24.05
  L 22.27 24.22
  Q 21.84 24.42 21.80 23.94
  Q 21.60 21.59 22.22 19.62
  A 0.27 0.26 -84.2 0 0 21.94 19.27
  Q 20.56 19.44 20.85 20.73
  Q 20.96 21.27 20.66 21.73
  Q 20.06 22.64 19.93 23.69
  A 0.52 0.51 1.9 0 1 19.44 24.14
  L 19.08 24.16
  Q 18.60 24.19 18.67 23.71
  L 19.42 19.15
  Q 19.51 18.64 20.00 18.49
  Q 21.14 18.15 22.15 18.63
  Q 22.58 18.83 22.98 18.59
  Q 23.53 18.27 24.12 18.27
  Q 24.98 18.27 24.62 19.06
  Q 24.34 19.66 23.75 19.81
  Q 22.87 20.03 23.69 20.43
  Z"
/>
</svg>
