<?xml version="1.0" encoding="UTF-8" standalone="no"?>
<!DOCTYPE svg PUBLIC "-//W3C//DTD SVG 1.1//EN" "http://www.w3.org/Graphics/SVG/1.1/DTD/svg11.dtd">
<svg xmlns="http://www.w3.org/2000/svg" version="1.1" viewBox="0.00 0.00 23.00 24.00">
<path fill="#fefefe" d="
  M 6.38 0.00
  L 14.22 0.00
  Q 14.63 0.83 14.34 1.56
  A 0.69 0.69 0.0 0 1 13.70 2.00
  L 6.81 1.99
  Q 6.32 1.99 6.11 1.55
  Q 5.76 0.83 6.38 0.00
  Z"
/>
<path fill="#fefefe" d="
  M 12.11 24.00
  L 8.74 24.00
  Q 1.82 22.48 0.00 15.33
  L 0.00 12.05
  Q 1.07 8.67 1.80 7.82
  Q 7.40 1.22 15.28 4.75
  Q 15.72 4.95 16.06 4.61
  L 17.14 3.54
  Q 17.71 2.96 18.29 3.54
  L 18.57 3.82
  A 0.78 0.78 0.0 0 1 18.54 4.95
  L 17.60 5.79
  Q 17.15 6.19 17.59 6.60
  Q 18.89 7.84 19.47 9.60
  Q 19.70 10.31 19.05 10.67
  L 18.75 10.83
  A 0.54 0.53 -29.2 0 1 18.02 10.63
  Q 14.25 4.04 7.95 5.87
  C -2.07 8.77 1.40 23.53 11.97 21.86
  A 0.93 0.93 0.0 0 1 12.94 22.37
  Q 13.43 23.37 12.11 24.00
  Z"
/>
<path fill="#fefefe" d="
  M 9.50 12.85
  L 9.50 9.47
  A 0.97 0.97 0.0 0 1 10.34 8.51
  Q 10.61 8.48 10.87 8.53
  A 0.77 0.76 5.5 0 1 11.49 9.28
  L 11.50 13.91
  A 1.17 1.15 -20.7 0 1 11.09 14.79
  L 7.68 17.70
  Q 6.85 18.40 6.13 17.60
  Q 6.00 17.45 5.95 17.23
  Q 5.83 16.63 6.30 16.25
  L 8.87 14.17
  Q 9.50 13.66 9.50 12.85
  Z"
/>
<path fill="#fefefe" d="
  M 21.80 18.13
  C 24.13 21.53 20.33 25.06 17.06 22.49
  Q 15.76 21.46 16.07 19.87
  A 0.84 0.83 -56.5 0 1 17.58 19.56
  Q 17.92 20.05 18.11 20.60
  C 18.39 21.38 19.24 21.69 19.98 21.36
  Q 20.49 21.14 20.56 20.59
  Q 20.77 18.93 19.01 18.74
  Q 18.29 18.66 18.36 17.94
  Q 18.42 17.25 19.14 17.03
  Q 19.85 16.82 19.88 16.07
  Q 19.90 15.71 19.64 15.45
  Q 19.26 15.05 18.81 15.36
  Q 18.31 15.69 18.34 16.30
  A 0.84 0.83 -72.7 0 1 17.00 17.01
  Q 16.03 16.27 16.56 15.15
  C 18.29 11.41 23.11 13.91 21.70 17.26
  A 0.91 0.90 38.7 0 0 21.80 18.13
  Z"
/>
</svg>
